<?xml version="1.0" standalone="no"?>
<!DOCTYPE svg PUBLIC "-//W3C//DTD SVG 20010904//EN"
 "http://www.w3.org/TR/2001/REC-SVG-20010904/DTD/svg10.dtd">
<svg version="1.0" xmlns="http://www.w3.org/2000/svg"
 width="2567.000000pt" height="2567.000000pt" viewBox="0 0 2567.000000 2567.000000"
 preserveAspectRatio="xMidYMid meet">
<metadata>
Created by potrace 1.14, written by Peter Selinger 2001-2017
</metadata>
<g transform="translate(0.000000,2567.000000) scale(0.100000,-0.100000)"
fill="#000000" stroke="none">
<path d="M12408 16241 c-537 -3 -980 -9 -984 -13 -4 -5 -2 -8 4 -8 19 0 14
-25 -9 -46 -12 -10 -42 -62 -66 -114 -25 -52 -51 -102 -58 -110 -7 -8 -90
-168 -185 -355 -95 -187 -176 -344 -180 -350 -8 -10 -137 -260 -282 -544 -43
-85 -82 -159 -87 -165 -8 -10 -61 -111 -250 -481 -184 -358 -357 -692 -431
-830 -21 -38 -68 -128 -105 -200 -80 -155 -242 -464 -450 -860 -84 -159 -227
-432 -317 -605 -91 -173 -212 -403 -268 -510 -56 -107 -178 -339 -270 -515
-92 -176 -224 -428 -294 -561 -104 -199 -126 -248 -126 -283 0 -34 4 -44 20
-48 11 -3 20 -10 20 -16 0 -15 5957 1 5990 16 14 7 26 20 28 29 2 9 -20 58
-49 110 -29 51 -95 176 -147 278 -52 102 -101 195 -108 207 -8 12 -46 84 -85
160 -316 609 -390 747 -418 782 l-27 33 -275 -1 c-151 -1 -730 -6 -1287 -12
-779 -8 -1017 -7 -1028 2 -22 18 -17 49 19 109 18 30 75 136 127 235 51 99 96
185 100 190 4 6 43 80 87 165 172 332 238 459 298 575 34 66 98 190 143 275
222 430 339 656 417 805 85 162 311 597 332 640 122 243 198 384 219 403 23
20 35 22 132 22 l108 0 71 -132 c113 -211 1284 -2412 1728 -3248 46 -85 119
-222 162 -305 353 -664 520 -979 578 -1092 37 -72 88 -158 114 -190 l47 -58
865 -3 866 -2 11 25 c7 14 12 31 12 37 0 6 -51 106 -114 222 -62 116 -208 393
-324 616 -115 223 -391 754 -612 1180 -221 426 -470 906 -553 1065 -82 160
-233 450 -334 645 -102 195 -222 427 -268 515 -46 88 -204 394 -353 680 -670
1293 -845 1630 -848 1634 -7 8 -294 8 -1306 2z"/>
</g>
</svg>
